#!OML:ASF I:\Actors\actors\Patient Classification 1\Patient 1\Session 1\Subject1.ASF
:FULLY-SPECIFIED
:DEGREES
309
root -0.301547 17.5736 7.54616 6.10606 -0.657617 -7.4692
lowerback 3.36534 1.41116 4.88732
upperback -7.51564 2.4148 1.18898
thorax -9.72412 0.864372 -1.74593
lowerneck -12.4168 -2.6158 1.03045
upperneck 29.7523 -3.4367 -2.02093
head 11.7013 -1.69138 -1.39382
rclavicle 7.60351e-015 -3.53837e-014
rhumerus -23.4904 34.9493 -88.119
rradius 101.879
rwrist 7.30241
rhand -15.4033 -46.1234
rfingers 7.12502
rthumb 10.7758 -795.827
lclavicle 7.60351e-015 -3.53837e-014
lhumerus -29.527 -28.0493 104.74
lradius 85.617
lwrist 11.4101
lhand -37.4346 -5.66595
lfingers 7.12502
lthumb -10.4939 24.0521
rfemur -0.859676 23.5914 25.2467
rtibia 2.80147
rfoot -11.3351 -22.2877
rtoes -0.429257
lfemur 6.89839 -38.9451 -15.9651
ltibia -3.50416
lfoot -13.3759 46.9218
ltoes 5.65197
310
root -0.307276 17.576 7.55058 6.16281 -0.314454 -7.38331
lowerback 3.40675 1.23863 4.59947
upperback -7.62017 2.17537 1.30119
thorax -9.89294 0.769231 -1.4415
lowerneck -12.4734 -2.51663 1.25906
upperneck 30.062 -3.22972 -2.42443
head 11.8249 -1.62096 -1.5634
rclavicle 7.30534e-015 5.1684e-015
rhumerus -23.867 34.5968 -88.7061
rradius 102.236
rwrist 9.54797
rhand -22.4435 -36.2451
rfingers 7.12502
rthumb 3.98049 -786.188
lclavicle 7.30534e-015 5.1684e-015
lhumerus -29.7365 -27.9698 104.989
lradius 85.5996
lwrist 11.7681
lhand -37.2591 -5.29648
lfingers 7.12502
lthumb -10.3246 24.4301
rfemur -0.885582 23.7366 25.1689
rtibia 2.77526
rfoot -11.4695 -22.7385
rtoes 0.0861709
lfemur 6.69997 -39.1787 -15.8834
ltibia -3.52187
lfoot -13.1973 46.8356
ltoes 5.46442
311
root -0.307689 17.5772 7.54969 6.10352 -0.0806803 -7.38949
lowerback 3.58996 1.07271 4.55648
upperback -7.68719 1.96628 1.34416
thorax -10.0929 0.666978 -1.35248
lowerneck -12.6444 -2.42511 1.4514
upperneck 30.5288 -3.08403 -2.64004
head 12.0408 -1.55743 -1.67245
rclavicle 3.27995e-015 -1.70955e-014
rhumerus -24.2868 34.4671 -89.5817
rradius 101.803
rwrist 9.71594
rhand -28.6932 -28.5385
rfingers 7.12502
rthumb -2.05539 -778.508
lclavicle 3.27995e-015 -1.70955e-014
lhumerus -29.7842 -27.9532 105.059
lradius 85.4884
lwrist 11.9627
lhand -37.1027 -5.16616
lfingers 7.12502
lthumb -10.1737 24.5679
rfemur -0.833902 23.6631 25.2173
rtibia 2.80826
rfoot -11.5462 -22.907
rtoes 0.370797
lfemur 6.72544 -39.3372 -15.8728
ltibia -3.54196
lfoot -13.179 46.7409
ltoes 5.60686
312
root -0.306103 17.5738 7.54413 5.95347 0.00116056 -7.65057
lowerback 3.61335 0.981279 4.93128
upperback -7.5764 1.8698 1.32229
thorax -9.9807 0.593746 -1.57305
lowerneck -12.6887 -2.39183 1.49142
upperneck 30.6183 -3.12052 -2.41107
head 12.0896 -1.53935 -1.60161
rclavicle 9.93923e-015 5.56597e-015
rhumerus -24.3424 34.9717 -90.2212
rradius 99.5917
rwrist 15.0055
rhand -34.931 -32.4344
rfingers 7.12502
rthumb -8.07814 -782.26
lclavicle 9.93923e-015 5.56597e-015
lhumerus -29.4491 -28.2065 104.863
lradius 85.2803
lwrist 11.7635
lhand -37.0974 -5.29827
lfingers 7.12502
lthumb -10.1686 24.436
rfemur -0.715828 23.4912 25.5892
rtibia 2.90946
rfoot -11.5581 -22.7979
rtoes 0.424025
lfemur 6.94883 -39.3598 -15.7085
ltibia -3.58786
lfoot -13.1117 46.6995
ltoes 5.51514
313
root -0.307714 17.567 7.53617 5.74682 -0.211512 -8.05194
lowerback 3.65066 1.02695 5.34943
upperback -7.41998 1.96317 1.33232
thorax -9.81475 0.614001 -1.80607
lowerneck -12.6478 -2.42466 1.4308
upperneck 30.5999 -3.29247 -1.96888
head 12.0816 -1.56704 -1.44747
rclavicle -5.66536e-015 -1.70955e-014
rhumerus -23.7966 35.3972 -89.9867
rradius 94.9737
rwrist 24.4468
rhand -30.5917 -40.7436
rfingers 7.12502
rthumb -3.88887 -790.688
lclavicle -5.66536e-015 -1.70955e-014
lhumerus -29.0166 -28.6053 104.679
lradius 85.0038
lwrist 11.2605
lhand -37.2855 -5.46982
lfingers 7.12502
lthumb -10.35 24.2555
rfemur -0.612391 23.3053 26.1235
rtibia 3.11593
rfoot -11.5224 -22.3546
rtoes 0.234538
lfemur 7.4358 -39.3957 -15.5564
ltibia -3.69747
lfoot -13.3724 46.9746
ltoes 5.63969
314
root -0.315873 17.5655 7.5298 5.65564 -0.71146 -7.98481
lowerback 3.6181 1.17192 5.05054
upperback -7.32186 2.12301 1.30208
thorax -9.67923 0.717906 -1.68884
lowerneck -12.6992 -2.48156 1.38965
upperneck 30.7856 -3.46433 -1.66709
head 12.1721 -1.60797 -1.35574
rclavicle 2.04251e-014 -2.82274e-014
rhumerus -23.2474 36.5088 -89.7898
rradius 89.6683
rwrist 24.5218
rhand -28.9479 -41.119
rfingers 7.12502
rthumb -2.30139 -791.086
lclavicle 2.04251e-014 -2.82274e-014
lhumerus -28.6343 -28.9331 104.584
lradius 84.7684
lwrist 10.7456
lhand -37.4964 -5.61323
lfingers 7.12502
lthumb -10.5535 24.1018
rfemur -0.719033 23.3148 26.0307
rtibia 3.36781
rfoot -11.5158 -21.8551
rtoes 0.0335012
lfemur 7.85552 -39.5586 -15.9328
ltibia -3.75551
lfoot -13.9468 47.5849
ltoes 6.1605
315
root -0.31977 17.5655 7.52406 5.60919 -1.19354 -7.68514
lowerback 3.51664 1.30405 4.52714
upperback -7.22024 2.24122 1.25219
thorax -9.50823 0.817719 -1.46026
lowerneck -12.8733 -2.56844 1.13996
upperneck 30.9522 -3.60246 -1.44289
head 12.2849 -1.6676 -1.25462
rclavicle 1.54555e-014 -1.03368e-014
rhumerus -22.2364 37.0646 -89.3198
rradius 85.5123
rwrist 16.9021
rhand -14.3629 -41.9718
rfingers 7.12502
rthumb 11.7792 -791.621
lclavicle 1.54555e-014 -1.03368e-014
lhumerus -28.281 -29.1338 104.498
lradius 84.7048
lwrist 10.46
lhand -37.4339 -5.57622
lfingers 7.12502
lthumb -10.4932 24.1419
rfemur -0.819945 23.3691 25.6435
rtibia 3.51912
rfoot -11.5269 -21.4589
rtoes -0.0130351
lfemur 8.12215 -39.5702 -16.4991
ltibia -3.76626
lfoot -14.2902 48.0062
ltoes 6.59006
